<svg xmlns="http://www.w3.org/2000/svg" viewBox="0 0 64.87 64.87"><defs><style>.cls-1,.cls-5{fill:#837adf;}.cls-1,.cls-3{opacity:0.2;}.cls-2,.cls-4,.cls-6{fill:#fff;}.cls-2{opacity:0.65;}.cls-3{fill:#5c54db;}.cls-4{opacity:0.6;}.cls-5{opacity:0.5;}.cls-6{opacity:0.8;}</style></defs><title>Asset 4</title><g id="Layer_2" data-name="Layer 2"><g id="Layer_1-2" data-name="Layer 1"><circle class="cls-1" cx="32.43" cy="32.43" r="32.43"/><path class="cls-2" d="M32.43,8.94a23.49,23.49,0,1,1-16.61,6.88A23.34,23.34,0,0,1,32.43,8.94m0-1.46a25,25,0,1,0,25,25,24.95,24.95,0,0,0-25-24.95Z"/><circle class="cls-3" cx="32.43" cy="32.43" r="24.96"/><path class="cls-4" d="M32.43,55.91A23.48,23.48,0,1,1,55.91,32.43,23.5,23.5,0,0,1,32.43,55.91Zm0-46.47a23,23,0,1,0,23,23A23,23,0,0,0,32.43,9.44Z"/><path class="cls-5" d="M32.43,49A16.53,16.53,0,1,1,49,32.43,16.54,16.54,0,0,1,32.43,49Zm0-32.56a16,16,0,1,0,16,16A16,16,0,0,0,32.43,16.4Z"/><path class="cls-5" d="M32.43,41.94a9.51,9.51,0,1,1,9.51-9.51A9.51,9.51,0,0,1,32.43,41.94Zm0-18.53a9,9,0,1,0,9,9A9,9,0,0,0,32.43,23.41Z"/><circle class="cls-6" cx="40.43" cy="18.18" r="1.63"/><circle class="cls-6" cx="38.31" cy="39.63" r="1.63"/><circle class="cls-6" cx="22.92" cy="45.62" r="1.63"/></g></g></svg>