<svg xmlns="http://www.w3.org/2000/svg" viewBox="0 0 1345.71 740.65"><defs><style>.cls-1{fill:#303d61;}.cls-2{fill:#576574;}.cls-3{fill:#1b2039;}</style></defs><title>Asset 3</title><g id="Layer_2" data-name="Layer 2"><g id="Layer_1-2" data-name="Layer 1"><path class="cls-1" d="M387.17,0h9.67a0,0,0,0,1,0,0V13.86A4.83,4.83,0,0,1,392,18.7h0a4.83,4.83,0,0,1-4.83-4.83V0A0,0,0,0,1,387.17,0Z"/><rect class="cls-1" x="387.17" y="25" width="9.67" height="15.7" rx="4.83" ry="4.83"/><path class="cls-1" d="M361.92,0h9.67a0,0,0,0,1,0,0V6a4.83,4.83,0,0,1-4.83,4.83h0A4.83,4.83,0,0,1,361.92,6V0A0,0,0,0,1,361.92,0Z"/><rect class="cls-1" x="361.92" y="17.15" width="9.67" height="9.67" rx="4.83" ry="4.83"/><circle class="cls-2" cx="92.76" cy="657.38" r="3.5"/><circle class="cls-2" cx="166.25" cy="719.46" r="3.5"/><circle class="cls-2" cx="217.36" cy="496.73" r="3.5"/><circle class="cls-2" cx="75.51" cy="533.66" r="3.5"/><circle class="cls-2" cx="12.71" cy="707.71" r="3.5"/><circle class="cls-2" cx="221.09" cy="611.58" r="2.03"/><circle class="cls-2" cx="33.71" cy="289.02" r="2.03"/><circle class="cls-2" cx="259.25" cy="398.36" r="1.71"/><circle class="cls-2" cx="223.13" cy="249.12" r="1.71"/><circle class="cls-2" cx="65.64" cy="727.31" r="1.71"/><circle class="cls-2" cx="96.26" cy="418.49" r="1.71"/><circle class="cls-2" cx="1.71" cy="609.55" r="1.71"/><circle class="cls-2" cx="1203.86" cy="319.05" r="3.5"/><circle class="cls-2" cx="1130.37" cy="256.97" r="3.5"/><circle class="cls-2" cx="1079.27" cy="479.7" r="3.5"/><circle class="cls-2" cx="1221.11" cy="442.77" r="3.5"/><circle class="cls-2" cx="1283.91" cy="268.72" r="3.5"/><circle class="cls-2" cx="1075.53" cy="364.85" r="2.03"/><circle class="cls-2" cx="1262.91" cy="687.41" r="2.03"/><circle class="cls-2" cx="1037.37" cy="578.07" r="1.71"/><circle class="cls-2" cx="1073.49" cy="727.31" r="1.71"/><circle class="cls-2" cx="1230.98" cy="249.12" r="1.71"/><circle class="cls-2" cx="1200.36" cy="557.94" r="1.71"/><circle class="cls-2" cx="1294.91" cy="366.88" r="1.71"/><circle class="cls-2" cx="1223.76" cy="725.6" r="3.5"/><circle class="cls-2" cx="1336.68" cy="418.49" r="3.5"/><circle class="cls-2" cx="392.21" cy="735.12" r="3.5"/><circle class="cls-2" cx="803.92" cy="732.76" r="2.03"/><circle class="cls-2" cx="1340.18" cy="672.09" r="2.03"/><circle class="cls-2" cx="590.17" cy="738.62" r="2.03"/><circle class="cls-2" cx="651" cy="722.1" r="1.71"/><circle class="cls-2" cx="1330.71" cy="581.83" r="1.71"/><circle class="cls-2" cx="998.71" cy="718.01" r="1.71"/><path class="cls-3" d="M1070,0V115.68A42.33,42.33,0,0,1,1027.72,158h-2a42.33,42.33,0,0,1-42.32-42.33V53.6A42.32,42.32,0,0,0,941,11.28h-2A42.32,42.32,0,0,0,896.71,53.6a42.34,42.34,0,0,1-42.32,42.33h-2A42.33,42.33,0,0,1,810,53.6V0Z"/><circle class="cls-2" cx="409.71" cy="62.98" r="1.71"/><path class="cls-1" d="M1245.21,0h32.5a0,0,0,0,1,0,0V21.28a16.25,16.25,0,0,1-16.25,16.25h0a16.25,16.25,0,0,1-16.25-16.25V0A0,0,0,0,1,1245.21,0Z"/><path class="cls-1" d="M1345.71,0V77a11.35,11.35,0,0,0-5.67-1.5,11.51,11.51,0,0,0-11.5,11.5v2.5a11.5,11.5,0,0,1-23,0V0Z"/><path class="cls-1" d="M182,0V33.86a11.5,11.5,0,0,1-23,0v-2.5a11.5,11.5,0,1,0-23,0V70.83a11.5,11.5,0,1,1-23,0V0Z"/><circle class="cls-1" cx="170.42" cy="60.3" r="8.24"/><path class="cls-3" d="M35.83,0H122.5a0,0,0,0,1,0,0V26.7A43.33,43.33,0,0,1,79.17,70h0A43.33,43.33,0,0,1,35.83,26.7V0a0,0,0,0,1,0,0Z"/><path class="cls-1" d="M90,0h9.67a0,0,0,0,1,0,0V50a4.83,4.83,0,0,1-4.83,4.83h0A4.83,4.83,0,0,1,90,50V0A0,0,0,0,1,90,0Z"/><path class="cls-1" d="M107.32,0H117a0,0,0,0,1,0,0V28a4.83,4.83,0,0,1-4.83,4.83h0A4.83,4.83,0,0,1,107.32,28V0A0,0,0,0,1,107.32,0Z"/></g></g></svg>