<svg xmlns="http://www.w3.org/2000/svg" viewBox="0 0 14.71 14.73"><defs><style>.cls-1{opacity:0.9;}.cls-2{fill:#191927;}</style></defs><title>Asset 3</title><g id="Layer_2" data-name="Layer 2"><g id="Layer_1-2" data-name="Layer 1"><g class="cls-1"><path class="cls-2" d="M14.71,3.85c-.06.29-.13.58-.2.88s-.15.75-.23,1.12a.57.57,0,0,1-.6.47.56.56,0,0,1-.53-.52,1.59,1.59,0,0,1,.06-.43c.07-.35.14-.71.22-1.08H3.85L4.36,9h6.82a1.48,1.48,0,0,0,1.38-.84s0-.09.08-.14a.57.57,0,0,1,1,.53,2.57,2.57,0,0,1-2.45,1.59H4a.58.58,0,0,0-.64.62.59.59,0,0,0,.53.55h7.53A1.69,1.69,0,1,1,9.8,13.28a5.37,5.37,0,0,1,0-.8H7.39a1.66,1.66,0,0,1-.77,2,1.57,1.57,0,0,1-1.78-.05,1.66,1.66,0,0,1-.69-1.92,5.14,5.14,0,0,1-.8-.15,1.63,1.63,0,0,1-1.13-1.48,1.65,1.65,0,0,1,.89-1.66.18.18,0,0,0,.1-.2L2.73,4.68c-.06-.62-.12-1.24-.2-1.86A2,2,0,0,0,.65,1.15a.76.76,0,0,1-.3,0A.54.54,0,0,1,0,.59.54.54,0,0,1,.33.06L.46,0h.4L1,0A3.12,3.12,0,0,1,3.65,2.57c0,.19.06.37.09.6A1.17,1.17,0,0,0,4,3L6.69.33C6.82.21,7,.11,7.12,0h.26a5,5,0,0,1,.44.33l1,1,.11.1L10,.33c.14-.12.29-.22.44-.33h.26a5,5,0,0,1,.44.33L13.84,3a.32.32,0,0,0,.17.09.63.63,0,0,1,.7.46ZM8.85,3.12h3.39l-1.69-1.7Zm-3.32,0H7.14a.13.13,0,0,0,.08,0l.84-.85-.82-.83ZM6.32,13a.55.55,0,0,0-1.09,0,.55.55,0,0,0,.54.55A.55.55,0,0,0,6.32,13Zm5.15.55A.56.56,0,0,0,12,13a.55.55,0,0,0-1.09,0A.55.55,0,0,0,11.47,13.57Z"/></g></g></g></svg>